<svg id="Capa_2" data-name="Capa 2" xmlns="http://www.w3.org/2000/svg" viewBox="0 0 1080 1080"><defs><style>.cls-1,.cls-2{fill:#061720;}.cls-1{stroke:#59aeaf;stroke-width:7px;}</style></defs><circle class="cls-1" cx="226.73" cy="511.14" r="176.5"/><path class="cls-2" d="M1055.56,521.09l-39.17.89-39.16.68L898.9,524l-156.65,1.66-39.16.41-39.17.23-78.32.42-78.33.18-19.58,0H482.8c-.86,0-1.52,0-2.26.06s-1.46,0-2.17.1a46.65,46.65,0,0,0-8.45,1.45A40.57,40.57,0,0,0,455,536.36a53.15,53.15,0,0,0-11.35,13.22A78.07,78.07,0,0,0,436,566c-.5,1.44-.93,2.9-1.35,4.36-.21.73-.4,1.46-.58,2.19l-.57,2.36c-.42,1.71-.9,3.44-1.48,5.19-.14.42-.3.88-.45,1.29l-.45,1.18-.89,2.35a212,212,0,0,1-17.69,36.16,216.9,216.9,0,0,1-53.61,59.52,215.25,215.25,0,0,1-71.53,35.84,212.83,212.83,0,0,1-79.48,7.12,212.32,212.32,0,0,1-179.78-138A210.69,210.69,0,0,1,18,547.48a214.39,214.39,0,0,1-2.77-39.17h0a.35.35,0,0,1,.35-.35.37.37,0,0,1,.35.35A210.55,210.55,0,0,0,208.38,718.12l4.87.37,2.43.18c.82,0,1.63.05,2.44.07,3.26.06,6.51.21,9.77.19,6.51-.09,13-.34,19.49-1a207.78,207.78,0,0,0,38.3-7.36,209,209,0,0,0,69.23-35.18,211.85,211.85,0,0,0,51.8-57.85,205.22,205.22,0,0,0,17.05-35c.55-1.52,1.18-3,1.68-4.57s.94-3.08,1.32-4.65a93.46,93.46,0,0,1,2.64-9.49,85,85,0,0,1,8.29-17.86A59.73,59.73,0,0,1,450.58,531a47.6,47.6,0,0,1,17.51-9.09,54.84,54.84,0,0,1,9.76-1.65c1.65-.11,3.31-.15,4.95-.17h24.47l78.33,0,156.65.09,313.31.18a.35.35,0,0,1,.35.35.36.36,0,0,1-.35.35Z"/></svg>