<svg xmlns="http://www.w3.org/2000/svg" viewBox="0 0 1080.89 1080.89"><defs><style>.cls-1{fill:#4a9395;}</style></defs><g id="Capa_7" data-name="Capa 7"><polygon class="cls-1" points="540.75 204.44 323.86 323.56 453.64 426.67 574.53 330.67 540.75 204.44"/><polygon class="cls-1" points="563.86 208 606.53 337.78 458.98 440.89 572.75 499.56 738.09 401.78 563.86 208"/><polygon class="cls-1" points="314.98 337.78 441.2 449.78 526.53 698.67 382.53 615.11 314.98 337.78"/><polygon class="cls-1" points="581.64 707.56 494.53 508.44 610.09 567.11 656.31 760.89 581.64 707.56"/><polygon class="cls-1" points="586.98 513.78 627.86 492.44 638.53 554.67 586.98 513.78"/><path class="cls-1" d="M656.31,478.22l8.89,85.34L635,576l42.66,192,72.89-58.67s3.56-288-1.78-284.44S656.31,478.22,656.31,478.22Z"/><polygon class="cls-1" points="645.64 791.11 393.2 656 590.53 881.78 645.64 791.11"/></g></svg>