<svg xmlns="http://www.w3.org/2000/svg" viewBox="0 0 1080 1080"><defs><style>.cls-1{fill:#061720;stroke:#59aeaf;stroke-width:4px;}</style></defs><g id="Capa_6" data-name="Capa 6"><path class="cls-1" d="M750.82,203,664.45,353.43a16.29,16.29,0,0,0,4.16,21,209.54,209.54,0,0,1,78.93,135.66A16.36,16.36,0,0,0,763.77,524H937.1a16.3,16.3,0,0,0,16.23-17.61C943,378.24,874.5,266.52,774.2,197.76A16.3,16.3,0,0,0,750.82,203ZM636.77,742.23a16.31,16.31,0,0,0-20.13-7,210.43,210.43,0,0,1-154.86-.63,16.3,16.3,0,0,0-20.24,7L355.16,892a16.31,16.31,0,0,0,7.18,22.84,415.67,415.67,0,0,0,353.62.8,16.29,16.29,0,0,0,7.24-22.86ZM316.35,556H142.9a16.3,16.3,0,0,0-16.23,17.61C136.89,701,204.72,812.21,304.1,881.07a16.29,16.29,0,0,0,23.43-5.25L414,725.33a16.28,16.28,0,0,0-4-20.88,209.49,209.49,0,0,1-77.48-134.6A16.21,16.21,0,0,0,316.35,556ZM540,125.33a413.1,413.1,0,0,0-177.47,39.79A16.29,16.29,0,0,0,355.34,188l86.38,150.41a16.3,16.3,0,0,0,20.23,7,210.38,210.38,0,0,1,154.51-.62,16.3,16.3,0,0,0,20.12-7L723,187.19a16.3,16.3,0,0,0-7.25-22.87A413.14,413.14,0,0,0,540,125.33ZM142.9,524H316.35a16.21,16.21,0,0,0,16.09-13.85,209.47,209.47,0,0,1,77.62-134.71,16.29,16.29,0,0,0,4.06-20.89L327.7,204.07a16.3,16.3,0,0,0-23.43-5.25C204.8,267.67,136.91,378.89,126.68,506.39A16.29,16.29,0,0,0,142.9,524Zm604.64,45.94a209.47,209.47,0,0,1-78.79,135.55,16.28,16.28,0,0,0-4.14,21L751,876.85a16.3,16.3,0,0,0,23.38,5.28c100.21-68.78,168.69-180.44,179-308.52A16.3,16.3,0,0,0,937.1,556H763.76A16.34,16.34,0,0,0,747.54,569.94Z"/><circle class="cls-1" cx="540" cy="540" r="180"/></g></svg>