<svg xmlns="http://www.w3.org/2000/svg" viewBox="0 0 1088 1088"><defs><style>.cls-1{fill:#ceb95f;}</style></defs><g id="Capa_8" data-name="Capa 8"><path class="cls-1" d="M718.26,325.62c-77.32-61.17-153.4-91.88-174.25-91.88-24.67,0-103.1,34.95-174.83,91.87C318.59,365.75,233.74,447.49,233.74,544c0,97.22,83.24,178.59,132.87,218.44,73.63,59.12,151.62,91.82,177.4,91.82s103.75-32.7,177.37-91.82C771,722.59,854.26,641.22,854.26,544,854.26,447.64,769,365.82,718.26,325.62Zm-80.4,91.48c26.46-19.22,60.79-17.2,90-5.52,26,10.41,53.37,36.16,42.56,67.14-9.17,26.3-39.9,35.57-65.18,34.26-17.47-.88-34.59-5.29-52.11-5.65a95.32,95.32,0,0,0-49.43,12.75c-7.25,4.13-13.87-4.79-10.42-10.51a7.6,7.6,0,0,1,0-1.85C597.11,473.19,608.65,438.31,637.86,417.1Zm-160.63-99c6-18.61,18-36.1,35.88-45a67.58,67.58,0,0,1,55.5-2c.46.17.91.35,1.35.55l1,.41.33.16a58.94,58.94,0,0,1,10.22,5.68c38.51,26.79,36.89,77.9,28.88,118.87-8.9,45.55-22.77,90.58-46.18,130.89-4.9,8.46-18,.81-13.11-7.67a336.39,336.39,0,0,0,28.2-63.3,516.71,516.71,0,0,0,15.26-58.05c4.33-20.93,8.23-43.11,4.2-64.4-3.07-16.23-10.55-32.6-24.14-42.66a51.41,51.41,0,0,0-50.11-5.69,7.83,7.83,0,0,1-4.09.65,48.6,48.6,0,0,0-12.3,8.7c-29.41,28.66-21,74.92-13.2,110.59,8.7,39.55,21.38,78.31,41.79,113.45,4.91,8.49-8.23,16.11-13.11,7.67a359.36,359.36,0,0,1-31.17-71.33,510.72,510.72,0,0,1-16.83-69.32C471.78,363.8,470.11,340.19,477.23,318.15ZM369.72,407.37c31-9.69,63.73-6.79,88.39,15.67,23.65,21.54,32.95,53.13,36.41,84a7.6,7.6,0,0,1,0,1.85c3.45,5.72-3.19,14.64-10.44,10.51a97.22,97.22,0,0,0-55.36-12.48c-19.3,1.28-38.45,6.77-57.89,5.37-24.85-1.79-52.7-16-55.4-43.43C312.23,436.32,342.52,415.89,369.72,407.37Zm80.42,263.54c-26.46,19.21-60.8,17.19-90,5.52-26-10.42-53.35-36.17-42.55-67.14,9.18-26.3,39.9-35.57,65.18-34.27,17.48.89,34.6,5.3,52.11,5.65a95.32,95.32,0,0,0,49.44-12.74c7.25-4.14,13.87,4.78,10.42,10.51a7.68,7.68,0,0,1,0,1.86C490.89,614.82,479.34,649.7,450.14,670.91Zm160.63,98.94c-6,18.61-18,36.11-35.89,45-17.56,8.76-37.45,9.16-55.5,2-.46-.17-.9-.35-1.34-.54s-.67-.27-1-.42a2.53,2.53,0,0,1-.33-.16,58.94,58.94,0,0,1-10.22-5.68c-38.51-26.79-36.91-77.89-28.89-118.86,8.92-45.56,22.77-90.58,46.19-130.9,4.91-8.45,18-.81,13.11,7.67a337,337,0,0,0-28.2,63.3,521.65,521.65,0,0,0-15.27,58c-4.33,20.94-8.22,43.11-4.19,64.4,3.07,16.24,10.55,32.61,24.14,42.66a51.42,51.42,0,0,0,50.11,5.7,7.71,7.71,0,0,1,4.09-.65,49.47,49.47,0,0,0,12.3-8.7c29.41-28.66,21-74.92,13.2-110.59-8.71-39.55-21.38-78.31-41.79-113.45-4.91-8.5,8.22-16.12,13.11-7.67a358.49,358.49,0,0,1,31.16,71.33,507.4,507.4,0,0,1,16.83,69.32C616.21,724.21,617.88,747.81,610.77,769.85Zm107.52-89.22c-31,9.69-63.74,6.79-88.41-15.66-23.64-21.55-33-53.14-36.4-84a7.52,7.52,0,0,1,0-1.84c-3.45-5.73,3.17-14.64,10.42-10.52a97.17,97.17,0,0,0,55.38,12.49c19.3-1.28,38.44-6.78,57.89-5.37,24.85,1.78,52.7,16,55.39,43.43C775.77,651.68,745.47,672.12,718.29,680.63Z"/><path class="cls-1" d="M544,158.22c-67.7,0-385.78,172.72-385.78,385.78S468,929.78,544,929.78,929.77,757.06,929.77,544,609.85,158.22,544,158.22Zm193.7,624.55c-34.14,27.42-73.4,52.57-110.56,70.83-35.09,17.25-64.63,26.74-83.14,26.74S496,870.85,460.85,853.6c-37.15-18.26-76.42-43.41-110.56-70.83-41.51-33.33-74.8-68.93-98.94-105.78-29-44.26-43.68-89-43.68-133s15-88.72,44.73-133.09c24.54-36.67,58.37-72.25,100.57-105.72,73.52-58.34,158.13-97.53,191-97.53,32.45,0,116.73,39.19,190.42,97.51,42.36,33.51,76.32,69.08,100.94,105.72,29.84,44.39,45,89.18,45,133.11s-14.69,88.73-43.68,133C812.51,713.84,779.22,749.44,737.71,782.77Z"/></g></svg>