<svg xmlns="http://www.w3.org/2000/svg" viewBox="0 0 1075.56 1075.56"><g id="Capa_5" data-name="Capa 5"><path d="M780.71,683.24c-7.82,13-16.21,25.5-24.78,37.79-4.24,6.19-8.67,12.2-13,18.28s-8.87,12-13.31,18C711.68,781.1,693,804.17,674,826.82l-14.39,16.92L644.92,860.4l-7.33,8.32-7.45,8.2-14.92,16.39c-2.47,2.75-5,5.42-7.54,8.11l-7.6,8.05-15.2,16.1-15.42,15.89c-5.19,5.25-10.33,10.54-15.56,15.75l-25.12,25-24.09-25.79q-29.78-31.86-58.25-64.94L432.23,875l-3.54-4.15-3.48-4.21-7-8.41-7-8.42c-2.33-2.8-4.65-5.6-6.91-8.46l-13.66-17.08C372.67,801.29,355,778,338.09,754c-8.44-12-16.78-24.12-24.82-36.5s-16-24.88-23.29-37.93l-.22-.38a1.88,1.88,0,0,1,.72-2.55,1.86,1.86,0,0,1,2.27.34L353,740.07l60,63.35c20,21.08,39.85,42.33,59.77,63.51l59.7,63.59-5.46-.08,62.54-62.69,31.27-31.34,15.64-15.67,15.7-15.61,62.81-62.43L778,680.56a1.87,1.87,0,0,1,2.92,2.3Z"/><path d="M535.64,67.38l-.35-.31c-.06,0-.13.11-.19.16-11.62,10.68-206.91,190.88-259,290.39,0,0,59,298.34,259,469.9.1.11.23.2.35.31a1,1,0,0,0,.19-.16c200-171.56,259-469.9,259-469.9C742.54,258.26,547.25,78.06,535.64,67.38ZM551.5,218.63,687.76,367.56a1305,1305,0,0,1-138.55,7.91Zm-31.49-1,2.29,157.72c-55.19-.74-103-4.58-138.8-8.53ZM371.15,399.54c21.14,2.49,47,5,76.5,6.9,22,1.4,47.3,2.5,75.14,2.82l5.53,380.08C497.53,740.56,379.69,545.13,371.15,399.54ZM543.24,788.22l5.49-378.88a1339.66,1339.66,0,0,0,150.82-9.14C690.84,544.51,575.15,737.47,543.24,788.22Z"/><path d="M535.54,66.74v.64l-.35-.31Z"/><path d="M535.46,67.07l-.19.16v-.34Z"/></g></svg>