<svg xmlns="http://www.w3.org/2000/svg" viewBox="0 0 1079.11 1079.11"><defs><style>.cls-1{fill:#aec9d7;}</style></defs><g id="Capa_6" data-name="Capa 6"><rect x="565.49" y="215.05" width="34.84" height="639.46" transform="translate(402.18 -235.36) rotate(34.26)"/><rect x="755.2" y="248.06" width="36.67" height="14.76" transform="translate(278.01 -391.13) rotate(34.26)"/><rect x="373.53" y="806.91" width="36.67" height="14.3" transform="matrix(0.83, 0.56, -0.56, 0.83, 526.25, -79.35)"/><path d="M859.23,190.42l-61.47,62-30.81-21S684.12,218.16,616.57,250c2-1.91,4.18-3.74,6.29-5.6,2.75-2.24,5.46-4.56,8.33-6.66s5.73-4.2,8.64-6.26c1.46-1,3-1.95,4.45-2.94l2.24-1.46,2.28-1.38c6-3.78,12.32-7.07,18.66-10.3C693,202.9,720.39,194.76,748,189.76c-27.75,2.74-55.71,8.62-82.74,19.32-6.71,2.8-13.43,5.68-20,9.11l-2.46,1.25-2.43,1.33c-1.61.91-3.24,1.77-4.85,2.7-3.18,1.92-6.4,3.78-9.5,5.86s-6.2,4.2-9.28,6.35-6,4.51-8.94,6.94A195.8,195.8,0,0,0,591,258,205.35,205.35,0,0,0,570,283.55c-1.9,2.06-3.75,4.21-5.56,6.43A1652.85,1652.85,0,0,1,432.68,433.45l-69-47c12.59,3.51,35.92-.2,74.93-39a105.54,105.54,0,0,0,1.27-37.59c7.41,3,22-.46,36.77-5.69q4.65-5.89,9.51-12.31a290.4,290.4,0,0,1,59-57.93l.62-45.94L587.74,207C690,151.42,804.43,148.21,804.43,148.21l76-52.95Z"/><path class="cls-1" d="M363.72,386.47a24.48,24.48,0,0,1-2.33-.77.25.25,0,0,1-.09,0,20.71,20.71,0,0,1-9.94-7.61Z"/><path d="M360.29,918.5,279.5,973.07,301,883S262,775.3,276.27,659.81l-32.95-32,42.52-17.41a290.78,290.78,0,0,1,32.29-76.14q4.37-7.15,8.28-13.89c-2.62-12.39-6.37-23.16-11.71-27.24l43.4-37.55c15.08-40.76,10.3-60.46,3.2-69.88a.25.25,0,0,0,.09,0l68.85,46.89A1653,1653,0,0,1,345,607.71c-1,1.76-2,3.55-2.87,5.34a204.66,204.66,0,0,0-10.66,20.38,199.83,199.83,0,0,0-8.17,21.32c-1.2,3.59-2.18,7.23-3.18,10.86s-1.83,7.29-2.52,11-1.35,7.33-2,11c-.28,1.84-.49,3.67-.74,5.5l-.35,2.75-.26,2.75c-.8,7.33-1,14.63-1.17,21.9-.06,29.07,4.7,57.25,12.32,84.07-5.47-27.55-7.93-56-5.68-84.35.69-7.08,1.45-14.14,2.76-21.14l.45-2.62.54-2.62c.37-1.75.7-3.49,1.1-5.23.62-2.5,1.21-5,1.87-7.51-.67,70.77,38.24,136.54,38.24,136.54l30.81,21Z"/><path class="cls-1" d="M361.39,385.7a.25.25,0,0,1-.09,0s0,0,0-.05Z"/><rect x="552.25" y="441.44" width="51.34" height="195.25" transform="translate(403.73 -231.8) rotate(34.26)"/></g></svg>